<svg width="800" height="179" viewBox="0 0 800 179" fill="none" xmlns="http://www.w3.org/2000/svg">
<path d="M249.827 28.0164C246.845 16.9967 238.237 8.38858 227.217 5.40668C207.393 0 127.603 0 127.603 0C127.603 0 47.8135 0.163839 27.989 5.57052C16.9693 8.55242 8.36115 17.1606 5.37925 28.1803C-0.61725 63.4056 -2.94376 117.079 5.54309 150.896C8.52499 161.915 17.1331 170.523 28.1528 173.505C47.9773 178.912 127.767 178.912 127.767 178.912C127.767 178.912 207.556 178.912 227.381 173.505C238.401 170.523 247.009 161.915 249.991 150.896C256.315 115.621 258.264 61.9802 249.827 28.0164Z" fill="#FF0000"/>
<path d="M102.208 127.794L168.399 89.456L102.208 51.1177V127.794Z" fill="white"/>
<path d="M767.558 51.9369C776.241 51.9369 782.795 53.5753 787.382 56.6882C791.97 59.8011 795.246 64.7163 797.212 71.4337C799.179 78.1511 799.998 87.3261 799.998 99.1225V118.292H757.891V124.19L758.547 140.41C759.038 144.014 759.857 146.636 761.168 148.274C762.479 149.913 764.609 150.732 767.394 150.732C771.162 150.732 773.784 149.257 775.094 146.308C776.569 143.359 777.224 138.444 777.388 131.726L799.179 133.037C799.342 134.02 799.342 135.331 799.342 136.969C799.342 147.291 796.557 154.992 790.823 160.071C785.088 165.15 777.224 167.771 766.902 167.771C754.451 167.771 745.767 163.839 740.852 156.138C735.937 148.438 733.315 136.314 733.315 120.094V100.269C733.872 72.4167 738.771 52.0188 767.558 51.9369ZM464.62 54.0668V136.15C464.62 141.065 465.111 144.67 466.258 146.8C468.585 151.354 474.614 150.191 477.891 147.946C479.782 146.668 481.307 144.917 482.314 142.867V54.0668H507.382V165.969H487.721L485.591 152.206H485.1C479.693 162.528 471.665 167.771 461.015 167.771C444.624 167.729 440.615 155.921 439.66 143.928L439.597 143.081C439.473 141.246 439.414 139.414 439.389 137.625V54.0668H464.62ZM593.889 54.0668V136.15C593.889 141.065 594.38 144.67 595.527 146.8C597.853 151.354 603.883 150.191 607.159 147.946C609.051 146.668 610.576 144.917 611.583 142.867V54.0668H636.65V165.969H616.99L614.86 152.206H614.368C608.962 162.528 600.934 167.771 590.284 167.771C573.893 167.729 569.883 155.921 568.929 143.928L568.866 143.081C568.741 141.246 568.683 139.414 568.657 137.625V54.0668H593.889ZM391.875 51.9369C400.067 51.9369 406.785 53.5753 411.7 57.0159C416.615 60.4565 420.383 65.6993 422.677 72.9082C424.971 80.1172 426.118 89.7837 426.118 101.744V117.964C426.118 129.924 424.971 139.427 422.677 146.636C420.383 153.845 416.779 159.087 411.7 162.528C406.621 165.805 399.739 167.607 391.22 167.607C382.373 167.771 375.491 165.969 370.412 162.692C365.333 159.251 361.729 154.008 359.599 146.8C357.469 139.591 356.486 130.088 356.486 118.128V101.908C356.486 89.9475 357.633 80.1172 360.091 72.9082C362.548 65.5355 366.316 60.2927 371.559 57.0159C376.802 53.7391 383.519 51.9369 391.875 51.9369ZM675.972 7.04504V66.027H676.136C678.429 61.7672 681.378 58.3266 685.474 55.7052C689.3 53.1323 693.808 51.7629 698.418 51.773C704.48 51.773 709.067 53.4114 712.508 56.5244C715.948 59.8011 718.406 64.8802 719.881 71.9252C721.309 78.7501 722.122 88.189 722.172 100.093L722.174 101.252V118.947C722.174 135.495 720.044 147.783 716.112 155.647C712.016 163.511 705.79 167.443 697.271 167.443C692.519 167.443 688.26 166.296 684.328 164.166C680.847 162.138 677.966 159.232 675.969 155.742L675.644 155.155H675.153L672.531 165.805H651.724V7.04504H675.972ZM575.702 12.7794V33.0954H550.799V165.969H526.223V33.0954H501.156V12.7794H575.702ZM305.532 12.7794L305.546 12.8411C305.786 13.9067 309.099 28.6334 312.742 45.7902L313.03 47.1496C313.174 47.8315 313.319 48.5169 313.464 49.2048L313.754 50.584C313.803 50.8144 313.851 51.045 313.9 51.2759L314.19 52.6633C314.239 52.8949 314.287 53.1267 314.336 53.3586L314.626 54.7515L315.048 56.7872C317.508 68.6681 319.856 80.5841 321.261 89.1283H321.916C323.263 81.4636 325.217 71.6555 327.302 61.642L327.849 59.0264C328.123 57.7175 328.399 56.4081 328.675 55.1022L329.105 53.0745C333.116 34.2101 337.107 16.5867 337.849 13.3192L337.897 13.1082C337.947 12.8916 337.972 12.7794 337.972 12.7794H363.04L334.04 116.162V165.805H309.3V116.326H309.137L280.465 12.7794H305.532ZM391.384 69.3038C387.943 69.3038 385.649 71.106 384.175 74.8743C382.7 78.6426 382.045 84.377 382.045 92.4051V127.303C382.045 135.495 382.7 141.557 384.011 145.161C385.322 148.766 387.779 150.568 391.384 150.568C394.824 150.568 397.282 148.766 398.756 145.161C400.231 141.557 400.886 135.495 400.886 127.303V92.4051C400.886 84.377 400.231 78.4788 398.756 74.8743C397.282 71.106 394.824 69.3038 391.384 69.3038ZM680.395 72.5806C678.399 74.4238 676.978 76.6989 676.133 79.5411L675.972 80.1172V143.687C678.003 147.127 680.887 149.421 685.966 149.585C688.587 149.585 690.717 148.602 692.356 146.636C693.994 144.67 695.141 141.393 695.796 136.805C696.425 132.401 696.753 126.336 696.778 118.611L696.779 117.636V103.055C696.779 94.2073 696.452 87.4899 695.96 82.7386C695.305 77.9873 694.486 74.5466 693.011 72.5806C690.16 68.4846 684 68.5338 680.395 72.5806ZM767.066 68.8123C764.281 68.9761 762.315 69.7953 761.168 71.2699C759.857 72.9083 759.038 75.3658 758.547 78.9703C758.065 82.5027 757.898 94.8467 757.891 95.339L757.891 103.382H776.241L776.24 96.2888L776.24 96.4254C776.23 98.9052 776.179 94.9858 776.066 90.1748L776.05 89.5286C775.947 85.2998 775.796 80.5853 775.586 78.9703C775.094 75.202 774.275 72.5806 772.964 71.106C771.654 69.6315 769.688 68.8123 767.066 68.8123Z" fill="#282828"/>
</svg>
